<?xml version="1.0" encoding="UTF-8"?>
<svg width="32" height="32" version="1.1" viewBox="0 0 8.4667 8.4667" xmlns="http://www.w3.org/2000/svg">
<g transform="translate(0 -288.53)" shape-rendering="auto">
<path transform="matrix(.26458 0 0 .26458 0 288.53)" d="m15.996 9.6328-11.996 10.287v10.08c5.52e-5 0.55226 0.44774 0.99994 1 1h6c0.55226-5.5e-5 0.99994-0.44774 1-1v-11h8v11c5.5e-5 0.55226 0.44774 0.99994 1 1h6c0.55226-5.5e-5 0.99994-0.44774 1-1v-10.08l-12.004-10.287z" color="#000000" color-rendering="auto" dominant-baseline="auto" image-rendering="auto" solid-color="#000000" style="font-feature-settings:normal;font-variant-alternates:normal;font-variant-caps:normal;font-variant-ligatures:normal;font-variant-numeric:normal;font-variant-position:normal;isolation:auto;mix-blend-mode:normal;paint-order:stroke fill markers;shape-padding:0;text-decoration-color:#000000;text-decoration-line:none;text-decoration-style:solid;text-indent:0;text-orientation:mixed;text-transform:none;white-space:normal"/>
<path transform="matrix(.26458 0 0 .26458 0 288.53)" d="m15.348 1.2402-13.996 12.002c-0.22462 0.18937-0.35461 0.46792-0.35547 0.76172v4.9961c-0.00453 0.859 1.0046 1.3236 1.6543 0.76172l13.346-11.443 13.354 11.443c0.64938 0.55003 1.6453 0.089292 1.6465-0.76172v-4.9961c0.0016-0.29222-0.12472-0.57051-0.3457-0.76172l-13.996-12.002c-0.36925-0.31664-0.93786-0.31624-1.3066 0z" color="#000000" color-rendering="auto" dominant-baseline="auto" image-rendering="auto" solid-color="#000000" style="font-feature-settings:normal;font-variant-alternates:normal;font-variant-caps:normal;font-variant-ligatures:normal;font-variant-numeric:normal;font-variant-position:normal;isolation:auto;mix-blend-mode:normal;shape-padding:0;text-decoration-color:#000000;text-decoration-line:none;text-decoration-style:solid;text-indent:0;text-orientation:mixed;text-transform:none;white-space:normal"/>
</g>
</svg>
